<mxfile host="app.diagrams.net" agent="Mozilla/5.0 (Windows NT 10.0; Win64; x64) AppleWebKit/537.36 (KHTML, like Gecko) Chrome/127.0.0.0 Safari/537.36" version="24.7.7">
  <diagram name="Page-1" id="3IHgNP1oew6FccoFz6p5">
    <mxGraphModel dx="936" dy="474" grid="1" gridSize="10" guides="1" tooltips="1" connect="1" arrows="1" fold="1" page="1" pageScale="1" pageWidth="827" pageHeight="1169" math="0" shadow="0">
      <root>
        <mxCell id="0" />
        <mxCell id="1" parent="0" />
        <mxCell id="WGIkRsEDO8xRG7oi4dG5-26" value="" style="rounded=0;whiteSpace=wrap;html=1;" vertex="1" parent="1">
          <mxGeometry x="80" y="20" width="440" height="680" as="geometry" />
        </mxCell>
        <mxCell id="WGIkRsEDO8xRG7oi4dG5-25" value="" style="group" vertex="1" connectable="0" parent="1">
          <mxGeometry x="110" y="60" width="400" height="615" as="geometry" />
        </mxCell>
        <mxCell id="WGIkRsEDO8xRG7oi4dG5-1" value="" style="swimlane;startSize=0;" vertex="1" parent="WGIkRsEDO8xRG7oi4dG5-25">
          <mxGeometry width="170" height="90" as="geometry">
            <mxRectangle x="310" y="150" width="50" height="40" as="alternateBounds" />
          </mxGeometry>
        </mxCell>
        <mxCell id="WGIkRsEDO8xRG7oi4dG5-2" value="User" style="sketch=0;outlineConnect=0;fontColor=#232F3E;gradientColor=none;strokeColor=#232F3E;fillColor=#ffffff;dashed=0;verticalLabelPosition=bottom;verticalAlign=top;align=center;html=1;fontSize=12;fontStyle=0;aspect=fixed;shape=mxgraph.aws4.resourceIcon;resIcon=mxgraph.aws4.user;" vertex="1" parent="WGIkRsEDO8xRG7oi4dG5-1">
          <mxGeometry x="22" y="10" width="50" height="50" as="geometry" />
        </mxCell>
        <mxCell id="WGIkRsEDO8xRG7oi4dG5-3" value="" style="sketch=0;html=1;aspect=fixed;strokeColor=none;shadow=0;fillColor=#3B8DF1;verticalAlign=top;labelPosition=center;verticalLabelPosition=bottom;shape=mxgraph.gcp2.big_query" vertex="1" parent="WGIkRsEDO8xRG7oi4dG5-1">
          <mxGeometry x="104" y="10.4" width="49.1" height="49.6" as="geometry" />
        </mxCell>
        <mxCell id="WGIkRsEDO8xRG7oi4dG5-4" value="Query&amp;nbsp;" style="text;html=1;align=center;verticalAlign=middle;resizable=0;points=[];autosize=1;strokeColor=none;fillColor=none;" vertex="1" parent="WGIkRsEDO8xRG7oi4dG5-1">
          <mxGeometry x="96" y="60" width="60" height="30" as="geometry" />
        </mxCell>
        <mxCell id="WGIkRsEDO8xRG7oi4dG5-6" value="" style="swimlane;startSize=0;" vertex="1" parent="WGIkRsEDO8xRG7oi4dG5-25">
          <mxGeometry x="190" width="180" height="90" as="geometry">
            <mxRectangle x="310" y="150" width="50" height="40" as="alternateBounds" />
          </mxGeometry>
        </mxCell>
        <mxCell id="WGIkRsEDO8xRG7oi4dG5-10" value="" style="html=1;verticalLabelPosition=bottom;align=center;labelBackgroundColor=#ffffff;verticalAlign=top;strokeWidth=2;strokeColor=#0080F0;shadow=0;dashed=0;shape=mxgraph.ios7.icons.link;" vertex="1" parent="WGIkRsEDO8xRG7oi4dG5-6">
          <mxGeometry x="20" y="20" width="30" height="30" as="geometry" />
        </mxCell>
        <mxCell id="WGIkRsEDO8xRG7oi4dG5-11" value="" style="sketch=0;pointerEvents=1;shadow=0;dashed=0;html=1;strokeColor=none;fillColor=#505050;labelPosition=center;verticalLabelPosition=bottom;verticalAlign=top;outlineConnect=0;align=center;shape=mxgraph.office.concepts.documents;" vertex="1" parent="WGIkRsEDO8xRG7oi4dG5-6">
          <mxGeometry x="70" y="13" width="36" height="44" as="geometry" />
        </mxCell>
        <mxCell id="WGIkRsEDO8xRG7oi4dG5-12" value="" style="image;aspect=fixed;perimeter=ellipsePerimeter;html=1;align=center;shadow=0;dashed=0;spacingTop=3;image=img/lib/active_directory/hard_disk.svg;" vertex="1" parent="WGIkRsEDO8xRG7oi4dG5-6">
          <mxGeometry x="120" y="23" width="50" height="27" as="geometry" />
        </mxCell>
        <mxCell id="WGIkRsEDO8xRG7oi4dG5-13" value="Documents" style="text;html=1;align=center;verticalAlign=middle;resizable=0;points=[];autosize=1;strokeColor=none;fillColor=none;" vertex="1" parent="WGIkRsEDO8xRG7oi4dG5-6">
          <mxGeometry x="48" y="60" width="80" height="30" as="geometry" />
        </mxCell>
        <mxCell id="WGIkRsEDO8xRG7oi4dG5-14" value="&lt;font style=&quot;font-size: 18px;&quot;&gt;Retrieval Process&lt;/font&gt;" style="rounded=1;whiteSpace=wrap;html=1;" vertex="1" parent="WGIkRsEDO8xRG7oi4dG5-25">
          <mxGeometry x="50" y="220" width="220" height="60" as="geometry" />
        </mxCell>
        <mxCell id="WGIkRsEDO8xRG7oi4dG5-16" value="" style="shape=singleArrow;direction=south;whiteSpace=wrap;html=1;" vertex="1" parent="WGIkRsEDO8xRG7oi4dG5-25">
          <mxGeometry x="80" y="110" width="60" height="100" as="geometry" />
        </mxCell>
        <mxCell id="WGIkRsEDO8xRG7oi4dG5-18" value="" style="shape=singleArrow;direction=south;whiteSpace=wrap;html=1;" vertex="1" parent="WGIkRsEDO8xRG7oi4dG5-25">
          <mxGeometry x="190" y="110" width="60" height="100" as="geometry" />
        </mxCell>
        <mxCell id="WGIkRsEDO8xRG7oi4dG5-19" value="" style="rounded=1;whiteSpace=wrap;html=1;" vertex="1" parent="WGIkRsEDO8xRG7oi4dG5-25">
          <mxGeometry x="30" y="355.5" width="260" height="90" as="geometry" />
        </mxCell>
        <mxCell id="WGIkRsEDO8xRG7oi4dG5-20" value="Prompt" style="shape=image;html=1;verticalAlign=top;verticalLabelPosition=bottom;labelBackgroundColor=#ffffff;imageAspect=0;aspect=fixed;image=https://cdn2.iconfinder.com/data/icons/onebit/PNG/terminal_prompt.png" vertex="1" parent="WGIkRsEDO8xRG7oi4dG5-25">
          <mxGeometry x="61" y="368" width="49" height="49" as="geometry" />
        </mxCell>
        <mxCell id="WGIkRsEDO8xRG7oi4dG5-21" value="LLM" style="sketch=0;html=1;aspect=fixed;strokeColor=none;shadow=0;fillColor=#3B8DF1;verticalAlign=top;labelPosition=center;verticalLabelPosition=bottom;shape=mxgraph.gcp2.time_clock" vertex="1" parent="WGIkRsEDO8xRG7oi4dG5-25">
          <mxGeometry x="200" y="364.95" width="46" height="53.48" as="geometry" />
        </mxCell>
        <mxCell id="WGIkRsEDO8xRG7oi4dG5-22" value="&lt;font style=&quot;font-size: 18px;&quot;&gt;output / answer&lt;/font&gt;" style="rounded=1;whiteSpace=wrap;html=1;" vertex="1" parent="WGIkRsEDO8xRG7oi4dG5-25">
          <mxGeometry x="50" y="525" width="220" height="60" as="geometry" />
        </mxCell>
        <mxCell id="WGIkRsEDO8xRG7oi4dG5-23" value="" style="shape=singleArrow;direction=south;whiteSpace=wrap;html=1;" vertex="1" parent="WGIkRsEDO8xRG7oi4dG5-25">
          <mxGeometry x="145" y="288" width="30" height="60" as="geometry" />
        </mxCell>
        <mxCell id="WGIkRsEDO8xRG7oi4dG5-24" value="" style="shape=singleArrow;direction=south;whiteSpace=wrap;html=1;" vertex="1" parent="WGIkRsEDO8xRG7oi4dG5-25">
          <mxGeometry x="140" y="460" width="30" height="60" as="geometry" />
        </mxCell>
        <mxCell id="WGIkRsEDO8xRG7oi4dG5-27" value="&lt;font style=&quot;font-size: 18px;&quot;&gt;NAVIE RAG&lt;/font&gt;" style="text;html=1;align=center;verticalAlign=middle;whiteSpace=wrap;rounded=0;" vertex="1" parent="WGIkRsEDO8xRG7oi4dG5-25">
          <mxGeometry x="300" y="530" width="100" height="85" as="geometry" />
        </mxCell>
      </root>
    </mxGraphModel>
  </diagram>
</mxfile>
